<svg width="275" height="250" viewBox="0 0 312 335" fill="none" xmlns="http://www.w3.org/2000/svg">
<g filter="url(#filter0_i_1_3)">
<path d="M312 191.815L310.75 335L156.585 197.182M312 191.815H278.518M312 191.815V159.93M156.585 197.182L111.614 159.784L151.527 159.93M156.585 197.182L58.4612 287.909H13L131.277 177.648M278.518 191.815L205.491 191.36L278.518 258.084V191.815ZM312 159.93H278.518M312 159.93V12L151.527 159.93M151.527 159.93H195.025M278.518 159.93V86.681L195.025 159.93M278.518 159.93H195.025" stroke="url(#paint0_linear_1_3)" stroke-width="10"/>
</g>
<defs>
<filter id="filter0_i_1_3" x="0.303894" y="0.590485" width="316.696" height="349.5" filterUnits="userSpaceOnUse" color-interpolation-filters="sRGB">
<feFlood flood-opacity="0" result="BackgroundImageFix"/>
<feBlend mode="normal" in="SourceGraphic" in2="BackgroundImageFix" result="shape"/>
<feColorMatrix in="SourceAlpha" type="matrix" values="0 0 0 0 0 0 0 0 0 0 0 0 0 0 0 0 0 0 127 0" result="hardAlpha"/>
<feOffset dy="4"/>
<feGaussianBlur stdDeviation="2"/>
<feComposite in2="hardAlpha" operator="arithmetic" k2="-1" k3="1"/>
<feColorMatrix type="matrix" values="0 0 0 0 0 0 0 0 0 0 0 0 0 0 0 0 0 0 0.25 0"/>
<feBlend mode="normal" in2="shape" result="effect1_innerShadow_1_3"/>
</filter>
<linearGradient id="paint0_linear_1_3" x1="200.133" y1="11.5923" x2="198.979" y2="328.158" gradientUnits="userSpaceOnUse">
<stop offset="1" stop-color="#ED3134"/>
</linearGradient>
</defs>
</svg>
