<svg width="317" height="347" viewBox="0 0 317 347" fill="none" xmlns="http://www.w3.org/2000/svg">
<g filter="url(#filter0_i_3220_943)">
<path d="M312 191.815L310.75 335L156.585 197.182M312 191.815H278.518M312 191.815V159.93M156.585 197.182L111.614 159.784L151.527 159.93M156.585 197.182L58.4612 287.909H13L131.277 177.648M278.518 191.815L205.491 191.36L278.518 258.084V191.815ZM312 159.93H278.518M312 159.93V12L151.527 159.93M151.527 159.93H195.025M195.025 159.93L278.518 86.681V159.93M195.025 159.93H278.518" stroke="url(#paint0_linear_3220_943)" stroke-width="10"/>
</g>
<defs>
<filter id="filter0_i_3220_943" x="0.303925" y="0.590485" width="316.696" height="349.5" filterUnits="userSpaceOnUse" color-interpolation-filters="sRGB">
<feFlood flood-opacity="0" result="BackgroundImageFix"/>
<feBlend mode="normal" in="SourceGraphic" in2="BackgroundImageFix" result="shape"/>
<feColorMatrix in="SourceAlpha" type="matrix" values="0 0 0 0 0 0 0 0 0 0 0 0 0 0 0 0 0 0 127 0" result="hardAlpha"/>
<feOffset dy="4"/>
<feGaussianBlur stdDeviation="2"/>
<feComposite in2="hardAlpha" operator="arithmetic" k2="-1" k3="1"/>
<feColorMatrix type="matrix" values="0 0 0 0 0 0 0 0 0 0 0 0 0 0 0 0 0 0 0.25 0"/>
<feBlend mode="normal" in2="shape" result="effect1_innerShadow_3220_943"/>
</filter>
<linearGradient id="paint0_linear_3220_943" x1="200.133" y1="11.5923" x2="198.979" y2="328.158" gradientUnits="userSpaceOnUse">
<stop offset="1" stop-color="white"/>
</linearGradient>
</defs>
</svg>
