<svg width="430" height="430" viewBox="0 0 430 430" fill="none" xmlns="http://www.w3.org/2000/svg">
<path d="M360.73 229.91C370.703 220.442 378.678 209.073 384.187 196.474C389.696 183.875 392.626 170.3 392.805 156.55C392.984 142.8 390.408 129.154 385.228 116.416C380.049 103.677 372.371 92.1052 362.648 82.3814C352.925 72.6577 341.354 64.9793 328.616 59.7991C315.878 54.6189 302.231 52.0417 288.482 52.2196C274.732 52.3974 261.157 55.3267 248.557 60.8347C235.957 66.3426 224.588 74.3178 215.12 84.2898L215 84.4098L214.87 84.2898C195.402 65.7563 169.461 55.5672 142.584 55.8975C115.707 56.2278 90.0241 67.0514 71.0179 86.0577C52.0116 105.064 41.188 130.747 40.8576 157.624C40.5273 184.501 50.7165 210.442 69.2499 229.91L215 375.65L360.73 229.91Z" fill="#F28BA8"/>
<g style="mix-blend-mode:multiply" opacity="0.5">
<path d="M215 84.4098V375.65L69.25 229.91C59.2991 220.436 51.344 209.068 45.8532 196.474C40.3623 183.879 37.4466 170.314 37.2778 156.576C37.109 142.837 39.6904 129.204 44.87 116.479C50.0497 103.753 57.7229 92.1929 67.438 82.4778C77.1531 72.7627 88.7137 65.0895 101.439 59.9098C114.165 54.7302 127.798 52.1488 141.536 52.3176C155.274 52.4864 168.84 55.4021 181.434 60.893C194.028 66.3838 205.397 74.3389 214.87 84.2898L215 84.4098Z" fill="#F28BA8"/>
</g>
<path d="M360.73 229.91C370.703 220.442 378.678 209.073 384.187 196.474C389.696 183.875 392.626 170.3 392.805 156.55C392.984 142.8 390.408 129.154 385.228 116.416C380.049 103.677 372.371 92.1052 362.648 82.3814C352.925 72.6577 341.354 64.9793 328.616 59.7991C315.878 54.6189 302.231 52.0417 288.482 52.2196C274.732 52.3974 261.157 55.3267 248.557 60.8347C235.957 66.3426 224.588 74.3178 215.12 84.2898L215 84.4098L214.87 84.2898C195.402 65.7563 169.461 55.5672 142.584 55.8975C115.707 56.2278 90.0241 67.0514 71.0179 86.0577C52.0116 105.064 41.188 130.747 40.8576 157.624C40.5273 184.501 50.7165 210.442 69.2499 229.91L215 375.65L360.73 229.91Z" stroke="#121331" stroke-width="7" stroke-linecap="round" stroke-linejoin="round"/>
<path d="M144.45 81.7598C123.863 81.7598 104.119 89.9372 89.5608 104.494C75.0026 119.05 66.8226 138.793 66.8199 159.38" stroke="#121331" stroke-width="7" stroke-linecap="round" stroke-linejoin="round"/>
</svg>
