<svg width="430" height="430" viewBox="0 0 430 430" fill="none" xmlns="http://www.w3.org/2000/svg">
<path d="M353.814 69L306.814 88.8L259.914 108.6L239.514 60.4L333.514 20.8L353.814 69Z" fill="#EBE6EF"/>
<path d="M214.414 77.1V106.6C214.414 110.1 211.614 112.9 208.114 112.9H190.314C178.714 112.9 169.214 103.4 169.214 91.8V77.1C169.214 65.5 178.714 56 190.314 56H193.314C204.914 56 214.414 65.5 214.414 77.1Z" fill="#F9C9C0"/>
<path d="M214.414 77.1001C213.814 75.2001 213.014 71.7001 207.014 68.2001C200.414 64.3001 194.114 75.6001 186.514 72.3001C177.114 68.3001 170.914 71.5001 169.314 77.1001C169.314 75.9001 169.414 74.9001 169.514 73.9001C171.114 63.8001 179.814 56.1001 190.314 56.1001H193.314C201.614 56.1001 208.914 61.0001 212.314 68.1001C213.714 70.8001 214.414 73.9001 214.414 77.1001Z" fill="#B26836"/>
<path d="M232.114 137.5L288.414 143.8L340.314 117.7C340.314 117.7 357.114 132.2 341.714 148.4L295.714 171.5L232.014 166.6V233.7H155.514V163L76.1143 52.0001C76.1143 52.0001 96.9143 29.7001 112.314 56.2001L173.414 137.6L232.114 137.5Z" fill="#08A88A"/>
<path d="M245.714 408.2C237.214 408.2 193.714 408.2 193.714 408.2H193.614C193.614 408.2 150.114 408.2 141.614 408.2C133.614 395.6 158.414 383.4 158.414 383.4L155.314 233.7H231.814L228.714 383.4C228.914 383.4 253.714 395.6 245.714 408.2Z" fill="#4BB3FD"/>
<path d="M158.614 383.4C158.614 383.4 133.814 395.6 141.814 408.2C150.314 408.2 193.814 408.2 193.814 408.2V383.4H158.614Z" fill="#3A3347"/>
<path d="M228.814 383.4C228.814 383.4 253.614 395.6 245.614 408.2C237.114 408.2 193.614 408.2 193.614 408.2V383.4H228.814Z" fill="#3A3347"/>
<path d="M193.714 270.2V408.2C193.714 408.2 150.214 408.2 141.714 408.2C133.714 395.6 158.514 383.4 158.514 383.4L155.414 233.7" stroke="#121331" stroke-width="7" stroke-miterlimit="10" stroke-linecap="round" stroke-linejoin="round"/>
<path d="M193.714 270.2V408.2C193.714 408.2 237.214 408.2 245.714 408.2C253.714 395.6 228.914 383.4 228.914 383.4L232.014 233.7" stroke="#121331" stroke-width="7" stroke-miterlimit="10" stroke-linecap="round" stroke-linejoin="round"/>
<path d="M190.314 112.9H208.114C211.614 112.9 214.414 110.1 214.414 106.6V77.1C214.414 65.5 204.914 56 193.314 56H190.314C178.714 56 169.214 65.5 169.214 77.1V91.8C169.314 103.4 178.714 112.9 190.314 112.9Z" stroke="#121331" stroke-width="7" stroke-miterlimit="10" stroke-linecap="round" stroke-linejoin="round"/>
<path d="M232.014 166.6V233.7H155.514L155.414 163" stroke="#121331" stroke-width="7" stroke-miterlimit="10" stroke-linecap="round" stroke-linejoin="round"/>
<path d="M155.414 163L76.1143 52.0001C76.1143 52.0001 96.9143 29.7001 112.314 56.2001L173.414 137.6" stroke="#121331" stroke-width="7" stroke-miterlimit="10" stroke-linecap="round" stroke-linejoin="round"/>
<path d="M321.314 127.2L306.814 88.8" stroke="#121331" stroke-width="7" stroke-miterlimit="10" stroke-linecap="round" stroke-linejoin="round"/>
<path d="M347.114 195.7L331.314 153.6" stroke="#121331" stroke-width="7" stroke-miterlimit="10" stroke-linecap="round" stroke-linejoin="round"/>
<path d="M232.114 137.5H173.414" stroke="#121331" stroke-width="7" stroke-miterlimit="10" stroke-linecap="round" stroke-linejoin="round"/>
<path d="M232.114 137.5L288.414 143.8L340.314 117.7C340.314 117.7 357.114 132.2 341.714 148.4L295.714 171.5L232.014 166.6" stroke="#121331" stroke-width="7" stroke-miterlimit="10" stroke-linecap="round" stroke-linejoin="round"/>
<path d="M333.562 20.8201L239.58 60.4573L259.903 108.646L353.886 69.0093L333.562 20.8201Z" stroke="#121331" stroke-width="7" stroke-miterlimit="10" stroke-linecap="round" stroke-linejoin="round"/>
</svg>
